<?xml version="1.0" encoding="UTF-8"?>
<svg xmlns="http://www.w3.org/2000/svg" width="325" height="129" viewBox="0 0 325 129" fill="none">
  <path fill-rule="evenodd" clip-rule="evenodd" d="M21.3573 2.09952C21.3573 3.25905 20.4173 4.19903 19.2578 4.19903C18.0983 4.19903 17.1583 3.25905 17.1583 2.09952C17.1583 0.939986 18.0983 0 19.2578 0C20.4173 0 21.3573 0.939986 21.3573 2.09952ZM27.5666 12.4129C27.5666 13.5724 26.6266 14.5124 25.4671 14.5124C24.3076 14.5124 23.3676 13.5724 23.3676 12.4129C23.3676 11.2534 24.3076 10.3134 25.4671 10.3134C26.6266 10.3134 27.5666 11.2534 27.5666 12.4129ZM31.6713 14.5124C32.8308 14.5124 33.7708 13.5724 33.7708 12.4129C33.7708 11.2534 32.8308 10.3134 31.6713 10.3134C30.5117 10.3134 29.5718 11.2534 29.5718 12.4129C29.5718 13.5724 30.5117 14.5124 31.6713 14.5124ZM39.9748 12.4129C39.9748 13.5724 39.0348 14.5124 37.8753 14.5124C36.7157 14.5124 35.7757 13.5724 35.7757 12.4129C35.7757 11.2534 36.7157 10.3134 37.8753 10.3134C39.0348 10.3134 39.9748 11.2534 39.9748 12.4129ZM44.0846 14.5124C45.2441 14.5124 46.1841 13.5724 46.1841 12.4129C46.1841 11.2534 45.2441 10.3134 44.0846 10.3134C42.9251 10.3134 41.9851 11.2534 41.9851 12.4129C41.9851 13.5724 42.9251 14.5124 44.0846 14.5124ZM52.3882 12.4129C52.3882 13.5724 51.4482 14.5124 50.2887 14.5124C49.1292 14.5124 48.1892 13.5724 48.1892 12.4129C48.1892 11.2534 49.1292 10.3134 50.2887 10.3134C51.4482 10.3134 52.3882 11.2534 52.3882 12.4129ZM62.5237 5.38488C63.6832 5.38488 64.6232 4.44489 64.6232 3.28536C64.6232 2.12583 63.6832 1.18584 62.5237 1.18584C61.3641 1.18584 60.4242 2.12583 60.4242 3.28536C60.4242 4.44489 61.3641 5.38488 62.5237 5.38488ZM64.8016 12.4129C64.8016 13.5724 63.8616 14.5124 62.702 14.5124C61.5425 14.5124 60.6025 13.5724 60.6025 12.4129C60.6025 11.2534 61.5425 10.3134 62.702 10.3134C63.8616 10.3134 64.8016 11.2534 64.8016 12.4129ZM19.2578 20.1713C20.4173 20.1713 21.3573 19.2313 21.3573 18.0718C21.3573 16.9123 20.4173 15.9723 19.2578 15.9723C18.0983 15.9723 17.1583 16.9123 17.1583 18.0718C17.1583 19.2313 18.0983 20.1713 19.2578 20.1713ZM27.5666 18.0718C27.5666 19.2313 26.6266 20.1713 25.4671 20.1713C24.3076 20.1713 23.3676 19.2313 23.3676 18.0718C23.3676 16.9123 24.3076 15.9723 25.4671 15.9723C26.6266 15.9723 27.5666 16.9123 27.5666 18.0718ZM31.6713 20.1713C32.8308 20.1713 33.7708 19.2313 33.7708 18.0718C33.7708 16.9123 32.8308 15.9723 31.6713 15.9723C30.5117 15.9723 29.5718 16.9123 29.5718 18.0718C29.5718 19.2313 30.5117 20.1713 31.6713 20.1713ZM39.9748 18.0718C39.9748 19.2313 39.0348 20.1713 37.8753 20.1713C36.7157 20.1713 35.7757 19.2313 35.7757 18.0718C35.7757 16.9123 36.7157 15.9723 37.8753 15.9723C39.0348 15.9723 39.9748 16.9123 39.9748 18.0718ZM44.0846 20.1713C45.2441 20.1713 46.1841 19.2313 46.1841 18.0718C46.1841 16.9123 45.2441 15.9723 44.0846 15.9723C42.9251 15.9723 41.9851 16.9123 41.9851 18.0718C41.9851 19.2313 42.9251 20.1713 44.0846 20.1713ZM52.3882 18.0718C52.3882 19.2313 51.4482 20.1713 50.2887 20.1713C49.1292 20.1713 48.1892 19.2313 48.1892 18.0718C48.1892 16.9123 49.1292 15.9723 50.2887 15.9723C51.4482 15.9723 52.3882 16.9123 52.3882 18.0718ZM56.4979 20.1713C57.6575 20.1713 58.5974 19.2313 58.5974 18.0718C58.5974 16.9123 57.6575 15.9723 56.4979 15.9723C55.3384 15.9723 54.3984 16.9123 54.3984 18.0718C54.3984 19.2313 55.3384 20.1713 56.4979 20.1713ZM64.8016 18.0718C64.8016 19.2313 63.8616 20.1713 62.702 20.1713C61.5425 20.1713 60.6025 19.2313 60.6025 18.0718C60.6025 16.9123 61.5425 15.9723 62.702 15.9723C63.8616 15.9723 64.8016 16.9123 64.8016 18.0718ZM19.2578 25.8297C20.4173 25.8297 21.3573 24.8898 21.3573 23.7302C21.3573 22.5707 20.4173 21.6307 19.2578 21.6307C18.0983 21.6307 17.1583 22.5707 17.1583 23.7302C17.1583 24.8898 18.0983 25.8297 19.2578 25.8297ZM27.5666 23.7302C27.5666 24.8898 26.6266 25.8297 25.4671 25.8297C24.3076 25.8297 23.3676 24.8898 23.3676 23.7302C23.3676 22.5707 24.3076 21.6307 25.4671 21.6307C26.6266 21.6307 27.5666 22.5707 27.5666 23.7302ZM31.6713 25.8297C32.8308 25.8297 33.7708 24.8898 33.7708 23.7302C33.7708 22.5707 32.8308 21.6307 31.6713 21.6307C30.5117 21.6307 29.5718 22.5707 29.5718 23.7302C29.5718 24.8898 30.5117 25.8297 31.6713 25.8297ZM39.9748 23.7302C39.9748 24.8898 39.0348 25.8297 37.8753 25.8297C36.7157 25.8297 35.7757 24.8898 35.7757 23.7302C35.7757 22.5707 36.7157 21.6307 37.8753 21.6307C39.0348 21.6307 39.9748 22.5707 39.9748 23.7302ZM44.0846 25.8297C45.2441 25.8297 46.1841 24.8898 46.1841 23.7302C46.1841 22.5707 45.2441 21.6307 44.0846 21.6307C42.9251 21.6307 41.9851 22.5707 41.9851 23.7302C41.9851 24.8898 42.9251 25.8297 44.0846 25.8297ZM52.3882 23.7302C52.3882 24.8898 51.4482 25.8297 50.2887 25.8297C49.1292 25.8297 48.1892 24.8898 48.1892 23.7302C48.1892 22.5707 49.1292 21.6307 50.2887 21.6307C51.4482 21.6307 52.3882 22.5707 52.3882 23.7302ZM56.4979 25.8297C57.6575 25.8297 58.5974 24.8898 58.5974 23.7302C58.5974 22.5707 57.6575 21.6307 56.4979 21.6307C55.3384 21.6307 54.3984 22.5707 54.3984 23.7302C54.3984 24.8898 55.3384 25.8297 56.4979 25.8297ZM64.8016 23.7302C64.8016 24.8898 63.8616 25.8297 62.702 25.8297C61.5425 25.8297 60.6025 24.8898 60.6025 23.7302C60.6025 22.5707 61.5425 21.6307 62.702 21.6307C63.8616 21.6307 64.8016 22.5707 64.8016 23.7302ZM7.94134 36.9672C9.10087 36.9672 10.0409 36.0272 10.0409 34.8677C10.0409 33.7082 9.10087 32.7682 7.94134 32.7682C6.78181 32.7682 5.84183 33.7082 5.84183 34.8677C5.84183 36.0272 6.78181 36.9672 7.94134 36.9672ZM27.5666 29.3886C27.5666 30.5482 26.6266 31.4882 25.4671 31.4882C24.3076 31.4882 23.3676 30.5482 23.3676 29.3886C23.3676 28.2291 24.3076 27.2891 25.4671 27.2891C26.6266 27.2891 27.5666 28.2291 27.5666 29.3886ZM31.6713 31.4882C32.8308 31.4882 33.7708 30.5482 33.7708 29.3886C33.7708 28.2291 32.8308 27.2891 31.6713 27.2891C30.5117 27.2891 29.5718 28.2291 29.5718 29.3886C29.5718 30.5482 30.5117 31.4882 31.6713 31.4882ZM21.3573 35.046C21.3573 36.2056 20.4173 37.1455 19.2578 37.1455C18.0983 37.1455 17.1583 36.2056 17.1583 35.046C17.1583 33.8865 18.0983 32.9465 19.2578 32.9465C20.4173 32.9465 21.3573 33.8865 21.3573 35.046ZM25.4671 37.1455C26.6266 37.1455 27.5666 36.2056 27.5666 35.046C27.5666 33.8865 26.6266 32.9465 25.4671 32.9465C24.3076 32.9465 23.3676 33.8865 23.3676 35.046C23.3676 36.2056 24.3076 37.1455 25.4671 37.1455ZM33.7708 35.046C33.7708 36.2056 32.8308 37.1455 31.6713 37.1455C30.5117 37.1455 29.5718 36.2056 29.5718 35.046C29.5718 33.8865 30.5117 32.9465 31.6713 32.9465C32.8308 32.9465 33.7708 33.8865 33.7708 35.046ZM19.2578 42.809C20.4173 42.809 21.3573 41.8691 21.3573 40.7095C21.3573 39.55 20.4173 38.61 19.2578 38.61C18.0983 38.61 17.1583 39.55 17.1583 40.7095C17.1583 41.8691 18.0983 42.809 19.2578 42.809ZM27.5666 40.7095C27.5666 41.8691 26.6266 42.809 25.4671 42.809C24.3076 42.809 23.3676 41.8691 23.3676 40.7095C23.3676 39.55 24.3076 38.61 25.4671 38.61C26.6266 38.61 27.5666 39.55 27.5666 40.7095ZM31.6713 42.809C32.8308 42.809 33.7708 41.8691 33.7708 40.7095C33.7708 39.55 32.8308 38.61 31.6713 38.61C30.5117 38.61 29.5718 39.55 29.5718 40.7095C29.5718 41.8691 30.5117 42.809 31.6713 42.809ZM15.6991 51.8424C15.6991 53.002 14.7591 53.9419 13.5996 53.9419C12.4401 53.9419 11.5001 53.002 11.5001 51.8424C11.5001 50.6829 12.4401 49.7429 13.5996 49.7429C14.7591 49.7429 15.6991 50.6829 15.6991 51.8424ZM25.4671 48.4674C26.6266 48.4674 27.5666 47.5275 27.5666 46.3679C27.5666 45.2084 26.6266 44.2684 25.4671 44.2684C24.3076 44.2684 23.3676 45.2084 23.3676 46.3679C23.3676 47.5275 24.3076 48.4674 25.4671 48.4674ZM33.7708 46.3679C33.7708 47.5275 32.8308 48.4674 31.6713 48.4674C30.5117 48.4674 29.5718 47.5275 29.5718 46.3679C29.5718 45.2084 30.5117 44.2684 31.6713 44.2684C32.8308 44.2684 33.7708 45.2084 33.7708 46.3679ZM19.2578 54.1259C20.4173 54.1259 21.3573 53.1859 21.3573 52.0263C21.3573 50.8668 20.4173 49.9268 19.2578 49.9268C18.0983 49.9268 17.1583 50.8668 17.1583 52.0263C17.1583 53.1859 18.0983 54.1259 19.2578 54.1259ZM27.5666 52.0263C27.5666 53.1859 26.6266 54.1259 25.4671 54.1259C24.3076 54.1259 23.3676 53.1859 23.3676 52.0263C23.3676 50.8668 24.3076 49.9268 25.4671 49.9268C26.6266 49.9268 27.5666 50.8668 27.5666 52.0263ZM31.6713 54.1259C32.8308 54.1259 33.7708 53.1859 33.7708 52.0263C33.7708 50.8668 32.8308 49.9268 31.6713 49.9268C30.5117 49.9268 29.5718 50.8668 29.5718 52.0263C29.5718 53.1859 30.5117 54.1259 31.6713 54.1259ZM18.0715 126.412C18.0715 127.571 17.1315 128.511 15.972 128.511C14.8125 128.511 13.8725 127.571 13.8725 126.412C13.8725 125.252 14.8125 124.312 15.972 124.312C17.1315 124.312 18.0715 125.252 18.0715 126.412ZM69.2735 14.5124C70.433 14.5124 71.373 13.5724 71.373 12.4129C71.373 11.2534 70.433 10.3134 69.2735 10.3134C68.114 10.3134 67.174 11.2534 67.174 12.4129C67.174 13.5724 68.114 14.5124 69.2735 14.5124ZM77.5825 12.4129C77.5825 13.5724 76.6425 14.5124 75.4829 14.5124C74.3234 14.5124 73.3834 13.5724 73.3834 12.4129C73.3834 11.2534 74.3234 10.3134 75.4829 10.3134C76.6425 10.3134 77.5825 11.2534 77.5825 12.4129ZM81.6869 25.9237C82.8464 25.9237 83.7864 24.9837 83.7864 23.8242C83.7864 22.6647 82.8464 21.7247 81.6869 21.7247C80.5274 21.7247 79.5874 22.6647 79.5874 23.8242C79.5874 24.9837 80.5274 25.9237 81.6869 25.9237ZM96.2943 8.12577C96.2943 9.2853 95.3543 10.2253 94.1948 10.2253C93.0352 10.2253 92.0953 9.2853 92.0953 8.12577C92.0953 6.96624 93.0352 6.02626 94.1948 6.02626C95.3543 6.02626 96.2943 6.96624 96.2943 8.12577ZM69.2735 20.1713C70.433 20.1713 71.373 19.2313 71.373 18.0718C71.373 16.9123 70.433 15.9723 69.2735 15.9723C68.114 15.9723 67.174 16.9123 67.174 18.0718C67.174 19.2313 68.114 20.1713 69.2735 20.1713ZM77.5825 18.0718C77.5825 19.2313 76.6425 20.1713 75.4829 20.1713C74.3234 20.1713 73.3834 19.2313 73.3834 18.0718C73.3834 16.9123 74.3234 15.9723 75.4829 15.9723C76.6425 15.9723 77.5825 16.9123 77.5825 18.0718ZM81.6869 20.1713C82.8464 20.1713 83.7864 19.2313 83.7864 18.0718C83.7864 16.9123 82.8464 15.9723 81.6869 15.9723C80.5274 15.9723 79.5874 16.9123 79.5874 18.0718C79.5874 19.2313 80.5274 20.1713 81.6869 20.1713ZM104.965 18.0718C104.965 19.2313 104.025 20.1713 102.866 20.1713C101.706 20.1713 100.766 19.2313 100.766 18.0718C100.766 16.9123 101.706 15.9723 102.866 15.9723C104.025 15.9723 104.965 16.9123 104.965 18.0718ZM69.2735 25.8297C70.433 25.8297 71.373 24.8898 71.373 23.7302C71.373 22.5707 70.433 21.6307 69.2735 21.6307C68.114 21.6307 67.174 22.5707 67.174 23.7302C67.174 24.8898 68.114 25.8297 69.2735 25.8297ZM64.896 35.141C64.896 36.3006 63.956 37.2406 62.7964 37.2406C61.6369 37.2406 60.6969 36.3006 60.6969 35.141C60.6969 33.9815 61.6369 33.0415 62.7964 33.0415C63.956 33.0415 64.896 33.9815 64.896 35.141ZM87.8963 25.8297C89.0559 25.8297 89.9959 24.8898 89.9959 23.7302C89.9959 22.5707 89.0559 21.6307 87.8963 21.6307C86.7368 21.6307 85.7968 22.5707 85.7968 23.7302C85.7968 24.8898 86.7368 25.8297 87.8963 25.8297ZM21.3573 58.141C21.3573 59.3005 20.4173 60.2405 19.2578 60.2405C18.0983 60.2405 17.1583 59.3005 17.1583 58.141C17.1583 56.9815 18.0983 56.0415 19.2578 56.0415C20.4173 56.0415 21.3573 56.9815 21.3573 58.141ZM25.4671 60.2405C26.6266 60.2405 27.5666 59.3005 27.5666 58.141C27.5666 56.9815 26.6266 56.0415 25.4671 56.0415C24.3076 56.0415 23.3676 56.9815 23.3676 58.141C23.3676 59.3005 24.3076 60.2405 25.4671 60.2405ZM33.7708 58.141C33.7708 59.3005 32.8308 60.2405 31.6713 60.2405C30.5117 60.2405 29.5718 59.3005 29.5718 58.141C29.5718 56.9815 30.5117 56.0415 31.6713 56.0415C32.8308 56.0415 33.7708 56.9815 33.7708 58.141ZM37.8753 54.5821C39.0348 54.5821 39.9748 53.6421 39.9748 52.4826C39.9748 51.3231 39.0348 50.3831 37.8753 50.3831C36.7157 50.3831 35.7757 51.3231 35.7757 52.4826C35.7757 53.6421 36.7157 54.5821 37.8753 54.5821ZM46.1841 52.4826C46.1841 53.6421 45.2441 54.5821 44.0846 54.5821C42.9251 54.5821 41.9851 53.6421 41.9851 52.4826C41.9851 51.3231 42.9251 50.3831 44.0846 50.3831C45.2441 50.3831 46.1841 51.3231 46.1841 52.4826ZM13.5996 14.5124C14.7591 14.5124 15.6991 13.5724 15.6991 12.4129C15.6991 11.2534 14.7591 10.3134 13.5996 10.3134C12.4401 10.3134 11.5001 11.2534 11.5001 12.4129C11.5001 13.5724 12.4401 14.5124 13.5996 14.5124ZM58.5974 52.4826C58.5974 53.6421 57.6575 54.5821 56.4979 54.5821C55.3384 54.5821 54.3984 53.6421 54.3984 52.4826C54.3984 51.3231 55.3384 50.3831 56.4979 50.3831C57.6575 50.3831 58.5974 51.3231 58.5974 52.4826ZM62.702 54.5821C63.8616 54.5821 64.8016 53.6421 64.8016 52.4826C64.8016 51.3231 63.8616 50.3831 62.702 50.3831C61.5425 50.3831 60.6025 51.3231 60.6025 52.4826C60.6025 53.6421 61.5425 54.5821 62.702 54.5821ZM21.3573 63.7994C21.3573 64.9589 20.4173 65.8989 19.2578 65.8989C18.0983 65.8989 17.1583 64.9589 17.1583 63.7994C17.1583 62.6399 18.0983 61.6999 19.2578 61.6999C20.4173 61.6999 21.3573 62.6399 21.3573 63.7994ZM25.4671 65.8989C26.6266 65.8989 27.5666 64.9589 27.5666 63.7994C27.5666 62.6399 26.6266 61.6999 25.4671 61.6999C24.3076 61.6999 23.3676 62.6399 23.3676 63.7994C23.3676 64.9589 24.3076 65.8989 25.4671 65.8989ZM33.7708 63.7994C33.7708 64.9589 32.8308 65.8989 31.6713 65.8989C30.5117 65.8989 29.5718 64.9589 29.5718 63.7994C29.5718 62.6399 30.5117 61.6999 31.6713 61.6999C32.8308 61.6999 33.7708 62.6399 33.7708 63.7994ZM37.8753 60.2405C39.0348 60.2405 39.9748 59.3005 39.9748 58.141C39.9748 56.9815 39.0348 56.0415 37.8753 56.0415C36.7157 56.0415 35.7757 56.9815 35.7757 58.141C35.7757 59.3005 36.7157 60.2405 37.8753 60.2405ZM46.1841 58.141C46.1841 59.3005 45.2441 60.2405 44.0846 60.2405C42.9251 60.2405 41.9851 59.3005 41.9851 58.141C41.9851 56.9815 42.9251 56.0415 44.0846 56.0415C45.2441 56.0415 46.1841 56.9815 46.1841 58.141ZM50.2887 60.2405C51.4482 60.2405 52.3882 59.3005 52.3882 58.141C52.3882 56.9815 51.4482 56.0415 50.2887 56.0415C49.1292 56.0415 48.1892 56.9815 48.1892 58.141C48.1892 59.3005 49.1292 60.2405 50.2887 60.2405ZM58.5974 58.141C58.5974 59.3005 57.6575 60.2405 56.4979 60.2405C55.3384 60.2405 54.3984 59.3005 54.3984 58.141C54.3984 56.9815 55.3384 56.0415 56.4979 56.0415C57.6575 56.0415 58.5974 56.9815 58.5974 58.141ZM62.702 60.2405C63.8616 60.2405 64.8016 59.3005 64.8016 58.141C64.8016 56.9815 63.8616 56.0415 62.702 56.0415C61.5425 56.0415 60.6025 56.9815 60.6025 58.141C60.6025 59.3005 61.5425 60.2405 62.702 60.2405ZM5.56902 80.2275C5.56902 81.387 4.62904 82.327 3.4695 82.327C2.30997 82.327 1.36999 81.387 1.36999 80.2275C1.36999 79.0679 2.30997 78.1279 3.4695 78.1279C4.62904 78.1279 5.56902 79.0679 5.56902 80.2275ZM25.4671 71.5563C26.6266 71.5563 27.5666 70.6163 27.5666 69.4568C27.5666 68.2973 26.6266 67.3573 25.4671 67.3573C24.3076 67.3573 23.3676 68.2973 23.3676 69.4568C23.3676 70.6163 24.3076 71.5563 25.4671 71.5563ZM33.7708 69.4568C33.7708 70.6163 32.8308 71.5563 31.6713 71.5563C30.5117 71.5563 29.5718 70.6163 29.5718 69.4568C29.5718 68.2973 30.5117 67.3573 31.6713 67.3573C32.8308 67.3573 33.7708 68.2973 33.7708 69.4568ZM37.8753 65.8989C39.0348 65.8989 39.9748 64.9589 39.9748 63.7994C39.9748 62.6399 39.0348 61.6999 37.8753 61.6999C36.7157 61.6999 35.7757 62.6399 35.7757 63.7994C35.7757 64.9589 36.7157 65.8989 37.8753 65.8989ZM46.1841 63.7994C46.1841 64.9589 45.2441 65.8989 44.0846 65.8989C42.9251 65.8989 41.9851 64.9589 41.9851 63.7994C41.9851 62.6399 42.9251 61.6999 44.0846 61.6999C45.2441 61.6999 46.1841 62.6399 46.1841 63.7994ZM50.2887 65.8989C51.4482 65.8989 52.3882 64.9589 52.3882 63.7994C52.3882 62.6399 51.4482 61.6999 50.2887 61.6999C49.1292 61.6999 48.1892 62.6399 48.1892 63.7994C48.1892 64.9589 49.1292 65.8989 50.2887 65.8989ZM58.5974 63.7994C58.5974 64.9589 57.6575 65.8989 56.4979 65.8989C55.3384 65.8989 54.3984 64.9589 54.3984 63.7994C54.3984 62.6399 55.3384 61.6999 56.4979 61.6999C57.6575 61.6999 58.5974 62.6399 58.5974 63.7994ZM62.702 77.1258C63.8616 77.1258 64.8016 76.1858 64.8016 75.0263C64.8016 73.8668 63.8616 72.9268 62.702 72.9268C61.5425 72.9268 60.6025 73.8668 60.6025 75.0263C60.6025 76.1858 61.5425 77.1258 62.702 77.1258ZM21.3573 75.1162C21.3573 76.2758 20.4173 77.2158 19.2578 77.2158C18.0983 77.2158 17.1583 76.2758 17.1583 75.1162C17.1583 73.9567 18.0983 73.0167 19.2578 73.0167C20.4173 73.0167 21.3573 73.9567 21.3573 75.1162ZM25.4671 77.2158C26.6266 77.2158 27.5666 76.2758 27.5666 75.1162C27.5666 73.9567 26.6266 73.0167 25.4671 73.0167C24.3076 73.0167 23.3676 73.9567 23.3676 75.1162C23.3676 76.2758 24.3076 77.2158 25.4671 77.2158ZM33.7708 75.1162C33.7708 76.2758 32.8308 77.2158 31.6713 77.2158C30.5117 77.2158 29.5718 76.2758 29.5718 75.1162C29.5718 73.9567 30.5117 73.0167 31.6713 73.0167C32.8308 73.0167 33.7708 73.9567 33.7708 75.1162ZM19.2578 82.8737C20.4173 82.8737 21.3573 81.9337 21.3573 80.7741C21.3573 79.6146 20.4173 78.6746 19.2578 78.6746C18.0983 78.6746 17.1583 79.6146 17.1583 80.7741C17.1583 81.9337 18.0983 82.8737 19.2578 82.8737ZM27.5666 80.7741C27.5666 81.9337 26.6266 82.8737 25.4671 82.8737C24.3076 82.8737 23.3676 81.9337 23.3676 80.7741C23.3676 79.6146 24.3076 78.6746 25.4671 78.6746C26.6266 78.6746 27.5666 79.6146 27.5666 80.7741ZM25.4671 88.5366C26.6266 88.5366 27.5666 87.5967 27.5666 86.4371C27.5666 85.2776 26.6266 84.3376 25.4671 84.3376C24.3076 84.3376 23.3676 85.2776 23.3676 86.4371C23.3676 87.5967 24.3076 88.5366 25.4671 88.5366ZM33.587 86.4371C33.587 87.5967 32.647 88.5366 31.4875 88.5366C30.328 88.5366 29.388 87.5967 29.388 86.4371C29.388 85.2776 30.328 84.3376 31.4875 84.3376C32.647 84.3376 33.587 85.2776 33.587 86.4371ZM43.7172 83.1516C44.8767 83.1516 45.8167 82.2116 45.8167 81.0521C45.8167 79.8925 44.8767 78.9525 43.7172 78.9525C42.5576 78.9525 41.6176 79.8925 41.6176 81.0521C41.6176 82.2116 42.5576 83.1516 43.7172 83.1516ZM21.3573 92.0955C21.3573 93.2551 20.4173 94.1951 19.2578 94.1951C18.0983 94.1951 17.1583 93.2551 17.1583 92.0955C17.1583 90.936 18.0983 89.996 19.2578 89.996C20.4173 89.996 21.3573 90.936 21.3573 92.0955ZM25.4671 94.1951C26.6266 94.1951 27.5666 93.2551 27.5666 92.0955C27.5666 90.936 26.6266 89.996 25.4671 89.996C24.3076 89.996 23.3676 90.936 23.3676 92.0955C23.3676 93.2551 24.3076 94.1951 25.4671 94.1951ZM33.7708 92.0955C33.7708 93.2551 32.8308 94.1951 31.6713 94.1951C30.5117 94.1951 29.5718 93.2551 29.5718 92.0955C29.5718 90.936 30.5117 89.996 31.6713 89.996C32.8308 89.996 33.7708 90.936 33.7708 92.0955ZM13.7833 94.1005C14.9429 94.1005 15.8828 93.1606 15.8828 92.001C15.8828 90.8415 14.9429 89.9015 13.7833 89.9015C12.6238 89.9015 11.6838 90.8415 11.6838 92.001C11.6838 93.1606 12.6238 94.1005 13.7833 94.1005ZM27.5666 97.7534C27.5666 98.913 26.6266 99.853 25.4671 99.853C24.3076 99.853 23.3676 98.913 23.3676 97.7534C23.3676 96.5939 24.3076 95.6539 25.4671 95.6539C26.6266 95.6539 27.5666 96.5939 27.5666 97.7534ZM19.2578 99.853C20.4173 99.853 21.3573 98.913 21.3573 97.7534C21.3573 96.5939 20.4173 95.6539 19.2578 95.6539C18.0983 95.6539 17.1583 96.5939 17.1583 97.7534C17.1583 98.913 18.0983 99.853 19.2578 99.853ZM33.7708 97.7534C33.7708 98.913 32.8308 99.853 31.6713 99.853C30.5117 99.853 29.5718 98.913 29.5718 97.7534C29.5718 96.5939 30.5117 95.6539 31.6713 95.6539C32.8308 95.6539 33.7708 96.5939 33.7708 97.7534ZM69.2735 54.5821C70.433 54.5821 71.373 53.6421 71.373 52.4826C71.373 51.3231 70.433 50.3831 69.2735 50.3831C68.114 50.3831 67.174 51.3231 67.174 52.4826C67.174 53.6421 68.114 54.5821 69.2735 54.5821ZM77.5825 52.4826C77.5825 53.6421 76.6425 54.5821 75.4829 54.5821C74.3234 54.5821 73.3834 53.6421 73.3834 52.4826C73.3834 51.3231 74.3234 50.3831 75.4829 50.3831C76.6425 50.3831 77.5825 51.3231 77.5825 52.4826ZM81.6869 54.5821C82.8464 54.5821 83.7864 53.6421 83.7864 52.4826C83.7864 51.3231 82.8464 50.3831 81.6869 50.3831C80.5274 50.3831 79.5874 51.3231 79.5874 52.4826C79.5874 53.6421 80.5274 54.5821 81.6869 54.5821ZM103.958 46.6403C103.958 47.7998 103.018 48.7398 101.858 48.7398C100.699 48.7398 99.7586 47.7998 99.7586 46.6403C99.7586 45.4807 100.699 44.5407 101.858 44.5407C103.018 44.5407 103.958 45.4807 103.958 46.6403ZM69.2735 60.2405C70.433 60.2405 71.373 59.3005 71.373 58.141C71.373 56.9815 70.433 56.0415 69.2735 56.0415C68.114 56.0415 67.174 56.9815 67.174 58.141C67.174 59.3005 68.114 60.2405 69.2735 60.2405ZM77.5825 58.141C77.5825 59.3005 76.6425 60.2405 75.4829 60.2405C74.3234 60.2405 73.3834 59.3005 73.3834 58.141C73.3834 56.9815 74.3234 56.0415 75.4829 56.0415C76.6425 56.0415 77.5825 56.9815 77.5825 58.141ZM81.6869 60.2405C82.8464 60.2405 83.7864 59.3005 83.7864 58.141C83.7864 56.9815 82.8464 56.0415 81.6869 56.0415C80.5274 56.0415 79.5874 56.9815 79.5874 58.141C79.5874 59.3005 80.5274 60.2405 81.6869 60.2405ZM96.4728 58.141C96.4728 59.3005 95.5328 60.2405 94.3733 60.2405C93.2138 60.2405 92.2738 59.3005 92.2738 58.141C92.2738 56.9815 93.2138 56.0415 94.3733 56.0415C95.5328 56.0415 96.4728 56.9815 96.4728 58.141ZM69.2735 65.8989C70.433 65.8989 71.373 64.9589 71.373 63.7994C71.373 62.6399 70.433 61.6999 69.2735 61.6999C68.114 61.6999 67.174 62.6399 67.174 63.7994C67.174 64.9589 68.114 65.8989 69.2735 65.8989ZM77.5825 63.7994C77.5825 64.9589 76.6425 65.8989 75.4829 65.8989C74.3234 65.8989 73.3834 64.9589 73.3834 63.7994C73.3834 62.6399 74.3234 61.6999 75.4829 61.6999C76.6425 61.6999 77.5825 62.6399 77.5825 63.7994ZM19.2578 105.874C20.4173 105.874 21.3573 104.934 21.3573 103.774C21.3573 102.615 20.4173 101.675 19.2578 101.675C18.0983 101.675 17.1583 102.615 17.1583 103.774C17.1583 104.934 18.0983 105.874 19.2578 105.874ZM27.5666 103.774C27.5666 104.934 26.6266 105.874 25.4671 105.874C24.3076 105.874 23.3676 104.934 23.3676 103.774C23.3676 102.615 24.3076 101.675 25.4671 101.675C26.6266 101.675 27.5666 102.615 27.5666 103.774ZM31.6713 105.874C32.8308 105.874 33.7708 104.934 33.7708 103.774C33.7708 102.615 32.8308 101.675 31.6713 101.675C30.5117 101.675 29.5718 102.615 29.5718 103.774C29.5718 104.934 30.5117 105.874 31.6713 105.874ZM21.3573 109.437C21.3573 110.597 20.4173 111.537 19.2578 111.537C18.0983 111.537 17.1583 110.597 17.1583 109.437C17.1583 108.278 18.0983 107.338 19.2578 107.338C20.4173 107.338 21.3573 108.278 21.3573 109.437ZM25.4671 111.537C26.6266 111.537 27.5666 110.597 27.5666 109.437C27.5666 108.278 26.6266 107.338 25.4671 107.338C24.3076 107.338 23.3676 108.278 23.3676 109.437C23.3676 110.597 24.3076 111.537 25.4671 111.537ZM33.7708 120.481C33.7708 121.64 32.8308 122.58 31.6713 122.58C30.5117 122.58 29.5718 121.64 29.5718 120.481C29.5718 119.321 30.5117 118.381 31.6713 118.381C32.8308 118.381 33.7708 119.321 33.7708 120.481ZM7.02811 116.643C8.18764 116.643 9.12763 115.703 9.12763 114.543C9.12763 113.384 8.18764 112.444 7.02811 112.444C5.86858 112.444 4.9286 113.384 4.9286 114.543C4.9286 115.703 5.86858 116.643 7.02811 116.643ZM4.19903 23.6398C4.19903 24.7993 3.25905 25.7393 2.09952 25.7393C0.939986 25.7393 0 24.7993 0 23.6398C0 22.4803 0.939986 21.5403 2.09952 21.5403C3.25905 21.5403 4.19903 22.4803 4.19903 23.6398ZM41.5285 110.623C42.6881 110.623 43.6281 109.683 43.6281 108.524C43.6281 107.364 42.6881 106.424 41.5285 106.424C40.369 106.424 39.429 107.364 39.429 108.524C39.429 109.683 40.369 110.623 41.5285 110.623ZM140.216 50.2047H130.17V66.1821H132.343V59.2747H139.691V57.2434H132.343V52.236H140.216V50.2047ZM158.346 66.5861C157.192 66.6003 156.048 66.3825 154.981 65.9458C153.994 65.54 153.101 64.9364 152.357 64.1717C151.617 63.4048 151.034 62.501 150.64 61.5105C149.814 59.3764 149.814 57.0102 150.64 54.8761C151.035 53.8846 151.618 52.9792 152.357 52.2097C153.102 51.447 153.994 50.845 154.981 50.4408C157.142 49.58 159.55 49.58 161.71 50.4408C162.697 50.845 163.59 51.447 164.335 52.2097C165.074 52.9781 165.655 53.884 166.046 54.8761C166.878 57.0092 166.878 59.3774 166.046 61.5105C165.656 62.5015 165.075 63.4059 164.335 64.1717C163.59 64.9364 162.697 65.54 161.71 65.9458C160.643 66.3825 159.499 66.6003 158.346 66.5861ZM158.346 64.5548C160.852 64.5932 163.103 63.028 163.941 60.6655C164.515 59.0672 164.515 57.3194 163.941 55.7211C163.673 54.9737 163.259 54.2866 162.723 53.7003C160.47 51.2827 156.684 51.1494 154.266 53.4022C154.163 53.4983 154.064 53.5975 153.968 53.7003C153.431 54.2866 153.015 54.9732 152.745 55.7211C152.178 57.3204 152.178 59.0662 152.745 60.6655C153.015 61.4119 153.431 62.0968 153.968 62.681C155.09 63.9061 156.685 64.589 158.346 64.5548ZM183.309 50.2044H177.687V66.1974H179.855V59.1536H182.27L186.332 66.1974H189.046L184.511 58.9069C185.082 58.857 185.637 58.6927 186.143 58.424C186.611 58.1741 187.031 57.8456 187.387 57.453C187.721 57.0745 187.984 56.6389 188.164 56.167C188.346 55.6946 188.438 55.1928 188.437 54.6868C188.434 54.1541 188.358 53.6245 188.211 53.1122C188.056 52.5763 187.782 52.0829 187.408 51.6688C186.967 51.2074 186.429 50.8489 185.833 50.619C185.027 50.3162 184.17 50.1755 183.309 50.2044ZM182.7 57.243H179.855V52.1202H182.7C183.118 52.1191 183.536 52.1527 183.949 52.2199C184.337 52.2803 184.711 52.4062 185.057 52.5926C185.382 52.7758 185.65 53.0445 185.833 53.3694C186.216 54.2024 186.216 55.1608 185.833 55.9938C185.648 56.3171 185.38 56.5853 185.057 56.7706C184.711 56.9569 184.337 57.0829 183.949 57.1433C183.536 57.2105 183.118 57.244 182.7 57.243ZM199.218 50.2047H202.446L207.527 62.277H207.616L212.65 50.2047H215.878V66.1821H213.71V53.0601H213.663L208.272 66.1821H206.802L201.412 53.0601H201.365V66.1821H199.197L199.218 50.2047ZM234.7 50.2047H232.737L225.698 66.1821H228.228L229.803 62.2297H237.392L238.993 66.1821H241.523L234.7 50.2047ZM233.639 53.0128L236.616 60.3612H230.548L233.571 53.0128H233.639ZM252.777 52.236H247.633V50.2047H260.088V52.236H254.944V66.1821H252.777V52.236ZM272.481 50.2047H270.313V66.1821H272.481V50.2047ZM291.801 66.5861C290.648 66.6008 289.504 66.383 288.437 65.9458C287.45 65.54 286.557 64.9364 285.813 64.1717C285.073 63.4048 284.489 62.501 284.096 61.5105C283.27 59.3764 283.27 57.0102 284.096 54.8761C284.491 53.8846 285.074 52.9792 285.813 52.2097C286.557 51.447 287.45 50.845 288.437 50.4408C290.595 49.58 293.002 49.58 295.161 50.4408C296.148 50.845 297.04 51.447 297.785 52.2097C298.524 52.9792 299.107 53.8846 299.501 54.8761C300.328 57.0102 300.328 59.3764 299.501 61.5105C299.108 62.501 298.525 63.4048 297.785 64.1717C297.041 64.9364 296.148 65.54 295.161 65.9458C294.095 66.3825 292.953 66.6003 291.801 66.5861ZM291.801 64.5548C293.462 64.589 295.057 63.9061 296.179 62.681C296.713 62.0953 297.126 61.4103 297.397 60.6655C297.97 59.0672 297.97 57.3194 297.397 55.7211C297.126 54.9748 296.713 54.2882 296.179 53.7003C295.054 52.4795 293.461 51.7977 291.801 51.8265C290.14 51.7987 288.546 52.4805 287.419 53.7003C286.885 54.2882 286.471 54.9748 286.201 55.7211C285.634 57.3204 285.634 59.0662 286.201 60.6655C286.471 61.4103 286.885 62.0953 287.419 62.681C288.541 63.9077 290.139 64.5905 291.801 64.5548ZM313.988 50.2047H311.143V66.1821H313.311V53.0601H313.353L322.244 66.1821H325V50.2047H322.832V63.3267H322.785L313.988 50.2047Z" fill="#222225"></path>
</svg>
